<svg width="254" height="30" viewBox="0 0 254 30" fill="none" xmlns="http://www.w3.org/2000/svg">
<path d="M14.2225 0L0 28.1678C16.7878 16.0261 23.4947 21.3095 39.3134 30L53.8663 1.84758C35.4421 13.5816 32.3384 9.12895 14.2225 0Z" fill="black"/>
<path d="M79.4228 26.7087H75.0919L73.1089 22.9683H60.6862L58.7487 26.7087H54.4178L64.4928 6.75975H69.3251L79.4228 26.7087ZM66.681 11.3314L62.8972 18.3966H70.9662L67.1596 11.3314H66.681Z" fill="black"/>
<path d="M97.1728 22.6912H84.431V26.7087H80.67V6.75975H97.1728C97.887 6.75975 98.5481 6.926 99.1559 7.25848C99.7789 7.57249 100.318 8.0158 100.774 8.58841C101.245 9.14254 101.61 9.79827 101.868 10.5556C102.142 11.2944 102.279 12.0979 102.279 12.9661V16.4849C102.279 17.3345 102.142 18.138 101.868 18.8953C101.61 19.6527 101.245 20.3176 100.774 20.8902C100.318 21.4444 99.7789 21.8877 99.1559 22.2202C98.5481 22.5342 97.887 22.6912 97.1728 22.6912ZM98.5177 15.1549V14.3514C98.5177 13.4094 98.3125 12.6705 97.9022 12.1349C97.4919 11.5992 96.7853 11.3314 95.7824 11.3314H84.431V18.1196H95.7824C96.7549 18.1196 97.454 17.8702 97.8794 17.3715C98.3049 16.8543 98.5177 16.1154 98.5177 15.1549Z" fill="black"/>
<path d="M104.332 6.75975H124.961V11.3314H108.093V14.4623H124.414V19.0062H108.093V22.137H124.961V26.7087H104.332V6.75975Z" fill="black"/>
<path d="M131.79 26.7087H126.547L134.662 16.7342L126.547 6.75975L131.79 6.73205L137.397 13.6033H139.677L145.284 6.73205L150.526 6.75975L142.412 16.7342L150.526 26.7087H145.284L139.608 19.8097H137.466L131.79 26.7087Z" fill="black"/>
<path d="M164.643 22.1925L169.202 6.75975H173.669L178.228 22.3864H178.684L186.753 6.75975H191.152L180.986 26.7087H175.538L171.435 12.8276L167.287 26.7087H161.839L151.673 6.75975H155.981L164.05 22.1925H164.643Z" fill="black"/>
<path d="M210.265 26.7087H205.934L203.951 22.9683H191.529L189.591 26.7087H185.26L195.335 6.75975H200.168L210.265 26.7087ZM197.523 11.3314L193.74 18.3966H201.809L198.002 11.3314H197.523Z" fill="black"/>
<path d="M217.92 22.7189H218.604L227.607 6.75975H232.007L220.997 26.7087H215.549L204.54 6.75975H208.962L217.92 22.7189Z" fill="black"/>
<path d="M233.371 6.75975H254V11.3314H237.132V14.4623H253.453V19.0062H237.132V22.137H254V26.7087H233.371V6.75975Z" fill="black"/>
</svg>
