<svg width="197" height="36" viewBox="0 0 197 36" fill="none" xmlns="http://www.w3.org/2000/svg">
<g clip-path="url(#clip0_10_99)">
<path d="M16.8758 30.1539L6.08413 1.56787H0L13.0716 35.4764H20.6788L33.7528 1.56787H27.6675L16.8758 30.1539Z" fill="white"/>
<path d="M42.9912 1.47974H37.1989V35.444H42.9912V1.47974Z" fill="white"/>
<path d="M133.829 25.0449L117.344 1.48438H111.886V35.444H117.455V10.7171L134.943 35.444H139.398V1.47974H133.829V25.0449Z" fill="white"/>
<path d="M160.364 16.3043L154.405 14.922C151.342 14.2024 149.894 12.7633 149.894 10.4954C149.894 7.67397 152.4 5.79261 156.076 5.79261C160.145 5.79261 162.315 7.78423 163.204 10.3295H168.996C167.771 4.68654 163.427 0.928467 156.024 0.928467C149.119 0.928467 144.383 5.2448 144.383 10.998C144.383 16.4749 148.171 19.0202 152.904 20.1262L158.697 21.5085C162.264 22.3395 163.653 23.7218 163.653 26.1011C163.653 29.2545 161.035 31.1358 157.026 31.1358C153.293 31.1358 150.399 29.5319 149.286 26.0465H143.381C144.603 32.3556 149.783 36.0046 157.019 36.0046C164.092 36.0046 169.213 32.0771 169.213 25.7146C169.219 20.6195 165.71 17.5218 160.364 16.3043Z" fill="white"/>
<path d="M197 6.56904V1.47974H174.668V35.444H197V30.3002H180.349V20.5603H195.44V15.5302H180.349V6.56904H197Z" fill="white"/>
<path d="M106.316 6.5631V1.47264H83.9837V15.8863H83.9012C82.1003 15.7796 79.5751 15.6113 78.0043 15.3571C78.419 13.2821 78.557 11.1614 78.4147 9.0503C77.9752 3.47122 74.4396 0.00446004 69.1856 0.00446004C67.3281 -0.0650914 65.4996 0.479298 63.9837 1.55316C62.4677 2.62702 61.3492 4.17031 60.8017 5.94356C60.2542 7.71681 60.3083 9.62087 60.9555 11.3603C61.6028 13.0997 62.8071 14.5773 64.3815 15.5637C65.4868 16.3622 66.673 17.0425 67.9206 17.5936C69.1016 18.1303 70.3128 18.598 71.5481 18.9945H71.5586L71.5353 19.0467L71.4028 19.3508C71.3528 19.4668 71.297 19.5829 71.2447 19.699L71.1714 19.8638C71.1296 19.9555 71.0889 20.0483 71.0412 20.1412C70.9889 20.2572 70.9354 20.3617 70.8831 20.4708C70.8471 20.5439 70.8121 20.617 70.7761 20.6901C68.9875 24.1779 66.7681 27.4281 64.1699 30.365L63.8293 30.7503L63.8142 30.7678L63.7432 30.603L52.4656 1.56317H46.3838L46.7151 2.38721L59.9565 35.4799H66.1836C70.3532 31.3239 73.7477 26.4596 76.208 21.1149C76.208 21.1149 76.4638 20.5195 76.5673 20.2433C78.9949 20.6035 81.4398 20.836 83.8919 20.9397H83.9744V35.4474H106.307V30.3035H89.6645V21.0755L104.757 21.0534V16.0175H89.6645V6.5631H106.316ZM72.9979 13.9261C73.0001 13.9054 73.0037 13.8848 73.0084 13.8645L72.9979 13.9261ZM72.9979 13.9261C71.6109 13.3643 70.3785 12.8548 69.453 12.3952C67.8102 11.5828 65.9093 10.4558 65.9093 8.16011C65.9108 7.72838 66.0016 7.30161 66.1761 6.90658C66.3506 6.51155 66.605 6.15678 66.9233 5.86451C67.2417 5.57225 67.617 5.3488 68.0259 5.20818C68.4349 5.06755 68.8685 5.0128 69.2996 5.04734C71.354 5.04734 72.9491 6.73139 73.1514 9.23136C73.2539 10.7976 73.2009 12.3702 72.9933 13.9261H72.9979Z" fill="white"/>
<path d="M72.9677 13.9274L72.9758 13.8647C72.974 13.8855 72.9706 13.9061 72.9654 13.9263L72.9677 13.9274Z" fill="white"/>
</g>
<defs>
<clipPath id="clip0_10_99">
<rect width="197" height="36" fill="white"/>
</clipPath>
</defs>
</svg>
