<svg width="243" height="158" viewBox="0 0 243 158" fill="none" xmlns="http://www.w3.org/2000/svg">
<path fill-rule="evenodd" clip-rule="evenodd" d="M124.03 0C108.894 0 96.6644 16.6848 96.6644 37.2564C96.6644 42.1228 97.3596 46.7996 98.592 51.0656C102.637 64.8116 112.496 74.5444 124.03 74.5444C135.564 74.5444 145.455 64.8116 149.468 51.0656C150.732 46.7996 151.396 42.1544 151.396 37.2564C151.396 16.6848 139.135 0 124.03 0ZM111.295 64.8748L111.2 64.78C111.011 64.5904 110.758 64.3692 110.695 64.306C107.756 61.3672 105.291 57.3856 103.522 52.7088C103.3 52.1716 103.111 51.6344 102.953 51.0656C101.562 46.7996 100.836 41.9964 100.836 37.0984C100.836 31.7264 101.784 26.386 103.553 21.6776C105.26 17.1272 107.756 13.1456 110.726 10.1436C114.645 6.2252 119.258 4.1396 124.062 4.1396C126.116 4.1396 128.138 4.5188 130.097 5.2772L130.287 5.3404C129.876 5.4668 129.528 5.5932 129.402 5.6564L128.991 5.4984C127.759 5.0244 126.116 4.8032 124.062 4.8032C121.344 4.8032 118.69 5.6564 116.162 7.3312C113.728 8.9744 110.979 11.2812 109.083 14.2516C105.165 20.382 102.984 28.4716 102.984 37.0668C102.984 41.9016 103.585 46.6732 104.691 51.034C104.786 51.4448 104.912 51.8556 105.038 52.298C106.397 57.038 108.957 61.0828 111.358 63.9268C111.358 63.9268 111.516 64.1164 111.643 64.2428C111.516 64.4008 111.39 64.622 111.295 64.8748ZM113.254 66.8024C113.002 66.518 112.875 66.1704 112.875 65.8544C112.907 65.5068 113.065 65.1592 113.381 64.8748C113.95 64.3692 114.929 64.0848 115.972 64.148C117.426 64.2428 118.626 65.096 118.816 66.044C118.911 66.044 118.974 66.044 119.037 66.0124C121.597 64.7484 122.798 60.2612 122.798 51.5396V51.0972L122.766 38.71H116.952C116.952 39.8792 116.952 46.2308 116.952 51.0972C116.952 54.352 116.952 56.9748 116.952 56.9748C116.952 57.5436 117.11 58.3336 117.426 59.1868L117.52 59.4712H113.128L113.223 59.1868C113.539 58.3336 113.697 57.5436 113.697 56.9748V17.5696C113.697 17.0008 113.539 16.2108 113.223 15.3576L113.128 15.0732H117.552L117.457 15.3576C117.141 16.2108 116.983 17.0008 116.983 17.5696L116.952 35.866H122.766L122.734 25.2484L122.766 22.12C123.177 14.5676 125.61 9.5116 129.813 7.4576C130.54 7.11 131.614 6.7308 132.467 6.794C134.016 6.8888 135.627 7.7104 135.564 8.848C135.532 9.1956 135.374 9.5432 135.058 9.8276C134.49 10.3332 133.51 10.6176 132.467 10.5544C131.488 10.4912 130.571 10.112 130.034 9.5116C129.781 9.2272 129.655 9.006 129.623 8.69C129.528 8.69 129.497 8.69 129.434 8.7216C126.526 10.1436 125.389 14.1884 125.736 25.438V35.866H131.962V17.5696C131.962 17.0008 131.804 16.2108 131.488 15.3576L131.393 15.0732H135.817L135.722 15.3576C135.406 16.2108 135.248 17.0008 135.248 17.5696V56.9432C135.248 57.512 135.406 58.302 135.722 59.1552L135.817 59.4396H131.393L131.488 59.1552C131.804 58.302 131.962 57.512 131.962 56.9432V35.8976L129.212 38.6468H125.736V51.034V52.5508C125.326 60.1032 122.892 65.1592 118.69 67.2132C117.963 67.5608 116.888 67.94 116.035 67.8768C114.866 67.8452 113.792 67.4028 113.254 66.8024ZM123.998 70.3732C122.071 70.3732 120.143 70.0256 118.279 69.3304C118.563 69.2356 118.848 69.1092 119.069 69.0144H119.1C120.301 69.4568 121.976 69.678 123.998 69.678C127.79 69.678 132.088 67.9716 135.374 64.6852C138.25 61.8096 140.683 57.7964 142.39 53.1196C142.642 52.4244 142.864 51.7292 143.085 51.034C144.38 46.7364 145.076 41.9964 145.076 37.2564C145.076 32.0108 144.349 26.7652 142.958 22.12C141.6 17.4748 139.135 13.43 136.733 10.5544C136.923 10.3332 136.986 10.1752 137.112 9.954C137.176 10.0172 137.239 10.0804 137.302 10.1436C140.178 13.0192 142.642 17.0008 144.412 21.646C146.276 26.544 147.256 31.9476 147.256 37.2564C147.256 42.186 146.498 46.8628 145.139 51.0656C141.473 62.4732 133.384 70.3732 123.998 70.3732Z" fill="#00387F"/>
<path d="M31.0945 91.7349H22.9417C23.7949 92.3985 24.0161 93.0305 24.0161 93.9785V129.307C24.0161 130.255 23.7949 130.856 22.9417 131.551H31.0945C30.2729 130.887 30.0201 130.255 30.0201 129.307V93.9785C30.0201 93.0305 30.2413 92.3985 31.0945 91.7349Z" fill="#00387F"/>
<path d="M242.467 115.688C239.844 106.713 228.531 106.113 228.531 100.298C228.531 98.4024 230.585 96.5696 232.545 96.5696C235.231 96.5696 237.19 97.3596 238.707 99.5716V90.9132C238.359 91.4188 237.695 91.64 237.127 91.64C236.4 91.64 235.673 91.4188 234.883 91.2608C234.093 91.1028 233.271 90.8816 232.323 90.8816C226.793 90.8816 222.275 94.6736 222.275 100.646C222.275 109.241 231.786 110.758 235.389 115.719C236.242 116.888 236.747 118.216 236.747 119.89C236.747 123.967 234.061 126.779 229.859 126.779C226.446 126.779 224.171 125.831 221.864 123.366V132.467C222.211 131.962 222.938 131.456 223.381 131.456C225.498 131.456 227.678 132.467 230.427 132.467C237.917 132.467 243.004 126.59 243.004 119.732C243.004 118.184 242.815 116.857 242.467 115.688Z" fill="#00387F"/>
<path d="M19.1812 113.254L23.1944 109.02H7.0784V93.9467C7.0784 92.9987 7.2996 92.3983 8.1528 91.7031H0C0.8532 92.3667 1.0744 92.9987 1.0744 93.9467V129.276C1.0744 130.224 0.8532 130.856 0 131.519H8.1528C7.2996 130.856 7.0784 130.224 7.0784 129.276V113.254H19.1812Z" fill="#00387F"/>
<path d="M70.5944 129.623L64.1164 115.688L52.7404 91.166H52.456L41.08 115.688L34.602 129.623C34.2544 130.287 33.8752 131.014 33.2748 131.519H41.6804C41.1748 131.298 41.0168 130.729 41.0168 130.224C41.0168 129.939 41.1748 129.37 41.4592 128.707L44.5244 121.692H60.356L63.4212 128.707C63.7056 129.37 63.8636 129.939 63.8636 130.224C63.8636 130.729 63.7056 131.298 63.2 131.519H71.9532C71.3212 131.014 70.9104 130.287 70.5944 129.623ZM46.294 117.615L47.1472 115.688L52.4244 103.774L57.67 115.688L58.5232 117.615H46.294Z" fill="#00387F"/>
<path d="M159.612 130.066C158.758 124.883 156.989 119.29 152.66 115.688C151.016 114.297 148.994 113.223 146.529 112.559V112.433C151.269 111.769 155.282 108.198 155.346 102.668C155.44 93.9469 148.267 91.7349 141.126 91.7349H130.919C131.772 92.3985 132.025 92.9357 132.025 93.8837V129.307C132.025 130.255 131.804 130.887 130.982 131.551H139.198C138.345 130.887 138.06 130.255 138.06 129.307V114.613C139.862 114.708 141.663 115.056 143.338 115.688C144.507 116.13 145.613 116.699 146.624 117.394C150.732 119.985 152.754 124.156 152.754 128.422C152.754 129.592 152.628 130.982 151.522 131.551H160.686C160.086 131.235 159.738 130.761 159.612 130.066ZM141.347 109.62H138.029V96.8857H142.074C146.908 96.8857 149.278 99.5401 149.278 102.763C149.31 106.713 146.087 109.62 141.347 109.62Z" fill="#00387F"/>
<path d="M212.131 92.9673C212.131 93.3149 211.846 94.0417 211.025 95.5269L204.041 107.345H203.915L196.931 95.5269C196.11 94.0101 195.825 93.2833 195.825 92.9673C195.825 92.4617 196.268 92.0825 196.615 91.7349H186.503C188.02 92.6829 188.526 93.5677 189.474 95.0213L200.976 113.191V129.276C200.976 130.224 200.755 130.824 199.902 131.519H208.054C207.201 130.856 206.98 130.224 206.98 129.276V113.191L218.482 95.0213C219.43 93.5677 219.936 92.6829 221.453 91.7349H211.341C211.688 92.0825 212.131 92.4617 212.131 92.9673Z" fill="#00387F"/>
<path d="M159.359 97.9917C160.022 97.5493 160.749 96.9805 161.602 96.9805H168.744V129.307C168.744 130.255 168.523 130.887 167.67 131.551H175.886C175.032 130.887 174.811 130.255 174.811 129.307V115.688V96.9805H181.953C182.774 96.9805 183.533 97.5493 184.196 97.9917V91.7349H159.359V97.9917Z" fill="#00387F"/>
<path d="M102.1 93.9785V129.307C102.1 130.255 101.878 130.856 101.025 131.519H124.472V124.788C123.619 126.179 122.166 126.305 120.175 126.305H108.135V113.254H119.574L123.682 108.894H108.104V96.7909H120.175C122.197 96.7909 123.651 96.9173 124.472 98.3077V91.7349H101.025C101.878 92.3985 102.1 92.9989 102.1 93.9785Z" fill="#00387F"/>
<path d="M90.5656 92.9989C90.5656 93.3465 90.534 93.6309 90.376 93.9785L81.5596 115.688L80.3272 118.753H80.2324L79 115.688L70.1836 93.9785C70.0572 93.6309 69.994 93.3465 69.994 92.9989C70.0256 92.3985 70.4048 92.0509 70.7524 91.7349H61.146C62.3784 92.8093 63.3896 94.0733 63.99 95.5269L72.7748 115.688L80.0744 132.404H80.1692L87.4688 115.688L96.2536 95.5269C96.854 94.0733 97.8652 92.7777 99.0976 91.7349H89.8388C90.1548 92.0509 90.5656 92.3985 90.5656 92.9989Z" fill="#00387F"/>
<path fill-rule="evenodd" clip-rule="evenodd" d="M195.067 143.559C194.308 143.559 193.645 143.843 193.139 144.349C192.602 144.886 192.318 145.581 192.318 146.308C192.318 147.035 192.602 147.73 193.139 148.236C193.676 148.773 194.34 149.057 195.067 149.057C195.794 149.057 196.489 148.773 197.026 148.236C197.532 147.73 197.816 147.066 197.816 146.308C197.816 145.581 197.532 144.886 197.026 144.38C196.489 143.843 195.794 143.559 195.067 143.559ZM197.247 146.276C197.247 146.877 197.026 147.414 196.615 147.793C196.173 148.204 195.636 148.457 195.067 148.457C194.498 148.457 193.961 148.236 193.518 147.825C193.108 147.414 192.886 146.845 192.886 146.276C192.886 145.708 193.108 145.139 193.55 144.728C193.961 144.317 194.498 144.096 195.067 144.096C195.667 144.096 196.204 144.317 196.615 144.728C197.026 145.139 197.247 145.708 197.247 146.276ZM195.098 144.76H193.866V147.73H194.814V146.592H194.909L195.446 147.73H196.457L195.794 146.434C196.173 146.308 196.394 146.024 196.394 145.644C196.394 145.076 195.952 144.76 195.098 144.76ZM194.94 145.328C195.256 145.328 195.414 145.423 195.414 145.676C195.414 145.897 195.256 146.024 194.972 146.024H194.782V145.328H194.94Z" fill="#00387F"/>
<path d="M89.7755 147.382H89.3331V150.132H89.9019C90.3759 150.132 90.7235 149.974 90.9447 149.658C91.1027 149.436 91.1975 149.089 91.1975 148.71C91.1975 147.825 90.7551 147.382 89.7755 147.382Z" fill="#00387F"/>
<path d="M173.832 147.382H173.389V150.132H173.958C174.432 150.132 174.78 149.974 175.001 149.658C175.159 149.436 175.254 149.089 175.254 148.71C175.254 147.825 174.811 147.382 173.832 147.382Z" fill="#00387F"/>
<path d="M184.512 154.524V152.691H188.936V149.5H184.512V147.856H189.158V144.633H179.583V157.81H189.284V154.524H184.512Z" fill="#00387F"/>
<path d="M80.3272 152.059C80.3272 153.292 79.5371 154.05 78.2731 154.05C76.9775 154.05 76.2191 153.292 76.2191 152.028V144.633H71.2896V152.059C71.2896 155.946 73.786 158 78.3996 158C82.7288 158 85.2252 155.82 85.2252 152.028V144.633H80.2956V152.059H80.3272Z" fill="#00387F"/>
<path d="M174.558 152.154C174.211 151.712 174.053 151.585 173.61 151.364C174.306 150.985 174.811 150.416 175.064 149.658H170.261C170.04 149.974 169.692 150.132 169.218 150.132H168.649V147.382H169.092C170.071 147.382 170.514 147.825 170.514 148.71C170.514 149.089 170.419 149.405 170.261 149.658H175.064C175.19 149.247 175.285 148.804 175.285 148.33C175.285 146.024 173.642 144.665 170.956 144.665H163.878V157.842H168.649L168.934 152.754C169.534 152.754 169.755 152.786 170.04 153.007C170.261 153.134 170.45 153.323 170.577 153.544C171.019 154.24 171.683 155.662 172.094 156.831L172.504 157.874H177.276L176.423 155.788C175.664 153.766 175.222 152.944 174.558 152.154Z" fill="#00387F"/>
<path d="M58.3019 157.81H63.1999V152.786H67.5291V149.563H63.1999V147.856H67.5291V144.633H58.3019V157.81Z" fill="#00387F"/>
<path d="M99.0976 152.154C98.75 151.712 98.592 151.585 98.1496 151.364C98.8448 150.985 99.3503 150.416 99.6031 149.658H94.7684C94.5472 149.974 94.1996 150.132 93.7256 150.132H93.1567V147.382H93.5991C94.5787 147.382 95.0211 147.825 95.0211 148.71C95.0211 149.089 94.9264 149.405 94.7684 149.658H99.6031C99.7295 149.247 99.8244 148.804 99.8244 148.33C99.8244 146.024 98.1811 144.665 95.4951 144.665H88.4167V157.842H93.1884L93.4727 152.754C94.0731 152.754 94.2943 152.786 94.5787 153.007C94.7999 153.134 94.9579 153.323 95.1159 153.544C95.5583 154.24 96.222 155.662 96.6327 156.831L97.0436 157.874H101.815L100.962 155.788C100.204 153.766 99.7612 152.944 99.0976 152.154Z" fill="#00387F"/>
<path d="M113.792 151.554C113.728 151.143 113.665 150.985 113.444 150.732L112.528 149.626L108.388 144.633H104.154V157.81H108.894V150.985C108.925 151.427 108.957 151.522 109.178 151.806L114.171 157.81H118.468V144.633H113.728V151.554H113.792Z" fill="#00387F"/>
<path d="M131.108 148.141H134.616V157.81H139.546V148.141H143.085V144.633H131.108V148.141Z" fill="#00387F"/>
<path d="M155.377 152.059C155.377 153.292 154.587 154.05 153.323 154.05C152.028 154.05 151.269 153.292 151.269 152.028V144.633H146.34V152.059C146.34 155.946 148.836 158 153.45 158C157.779 158 160.275 155.82 160.275 152.028V144.633H155.346V152.059H155.377Z" fill="#00387F"/>
<path d="M127.759 144.633H122.892V157.81H127.759V144.633Z" fill="#00387F"/>
</svg>
