<svg width="260" height="62" viewBox="0 0 260 62" fill="none" xmlns="http://www.w3.org/2000/svg">
<path d="M20.4032 29.7768H23.089C32.2726 29.7768 38.034 32.6983 38.034 42.752C38.034 50.6145 34.8717 56.1998 25.2116 56.1998C23.4788 56.1998 22.136 56.1998 20.3599 55.8561V29.7768H20.4032ZM20.4032 4.85745C22.2659 4.59966 24.042 4.51374 25.8614 4.51374C32.4459 4.51374 36.1713 7.0916 36.1713 14.0518C36.1713 22.7306 31.103 25.1796 23.089 25.1796H20.4032V4.85745ZM7.06098 5.07227C7.49417 6.18934 7.66744 8.59536 7.66744 12.3333V52.419C7.66744 55.1687 7.32089 56.7154 5.84805 57.4887L2.989 59.1214V61.1407C6.32456 61.0548 10.0067 60.8829 13.8187 60.8829C18.1506 60.8829 22.4825 61.0548 26.5112 61.1407C41.1963 61.5274 51.5495 53.0205 51.5495 42.0646C51.5495 31.7102 44.965 27.6285 33.4422 27.1989V27.027C41.7161 24.2773 49.4702 21.2269 49.4702 12.1184C49.4702 2.02181 40.6764 -0.0834434 32.3592 0.0024852C25.4282 0.0884138 5.97801 0.0884138 0 0.0024852V3.31074C0.0433189 3.31074 6.1946 2.6233 7.06098 5.07227ZM67.1443 37.3385C63.2456 38.1548 59.2169 39.1859 55.8814 41.4631C52.8057 43.5253 51.7228 47.4781 51.7228 50.9152C51.7228 57.231 55.0583 61.957 61.7728 61.8281C71.6928 61.6563 75.115 54.3094 75.115 54.3094V60.5822C78.2773 60.4963 80.7897 60.3244 83.3022 60.3244C85.9014 60.3244 88.3272 60.4963 91.1863 60.5822V57.231L90.3199 57.0161C87.3742 56.7584 86.2479 55.5554 86.1613 53.3212C86.0747 49.6692 85.8581 45.9313 85.8581 42.2794C85.8581 38.5844 86.0747 34.9325 86.1613 31.2376C86.3779 21.6995 79.1869 18.3053 71.2596 18.2194C62.7258 18.0905 56.0547 24.1484 56.0547 24.1484V30.3353L58.7404 30.9368L60.2133 27.4567C60.9064 25.2655 64.2419 25.2225 65.8014 25.2225C72.5592 25.2225 75.2016 29.476 75.2016 35.7488L67.1443 37.3385ZM75.0716 50.0559C73.9887 51.7315 70.3066 54.0086 67.5775 54.0516C58.7837 54.1805 58.1773 43.6972 70.9997 40.5178L75.0716 39.4867V50.0559ZM122.419 31.1946L123.156 20.3246C119.907 18.7349 115.965 18.2623 111.893 18.2623C101.366 18.2623 93.3522 22.0002 93.3522 32.2257C93.3522 37.8541 96.6011 41.6779 102.882 43.1816L110.636 45.0721C113.972 45.8454 116.311 46.9195 116.311 50.8722C116.311 55.2116 112.629 57.6176 108.557 57.6176C104.312 57.6176 98.6805 56.6295 97.9007 52.9345L96.8611 46.7477H93.3522V59.3362C98.0307 61.0118 102.709 61.8281 107.431 61.8281C116.701 61.8281 126.361 57.0161 126.361 46.6188C126.361 39.2719 122.246 36.4792 114.925 34.8895L107.518 33.2998C104.095 32.5694 102.579 31.1516 102.579 28.273C102.579 24.4062 105.741 22.4728 110.983 22.4728C113.842 22.4728 118.001 24.0625 118.347 25.9529L119.257 31.1516H122.419V31.1946ZM201.779 39.6586L201.823 33.9013C201.823 23.418 194.285 18.1764 184.279 18.1764C181.549 18.1764 163.399 19.5083 164.092 41.1623C164.482 53.9657 171.413 61.8281 184.538 61.8281C189.867 61.8281 193.549 60.797 198.964 57.9614L200.956 53.7079L199.873 52.333C197.014 54.0516 193.159 55.4694 190.17 55.4694C180.77 55.4694 175.831 49.0248 175.831 40.346C175.831 40.346 201.779 39.9593 201.779 39.6586ZM183.066 23.1603C189.737 23.1603 190.43 30.3353 190.43 35.6199C187.917 35.7058 177.781 35.7058 175.268 35.6199C175.268 27.1989 177.781 23.1603 183.066 23.1603ZM249.56 8.93906C249.56 11.9036 251.943 14.0948 254.802 14.0948C257.617 14.0948 260 11.8606 260 8.93906C260 6.06045 257.617 3.82631 254.802 3.82631C251.943 3.82631 249.56 6.06045 249.56 8.93906ZM250.513 8.93906C250.513 6.49009 252.333 4.59967 254.758 4.59967C257.184 4.59967 259.004 6.44713 259.004 8.93906C259.004 11.431 257.184 13.3644 254.758 13.3644C252.333 13.3644 250.513 11.431 250.513 8.93906ZM252.722 11.9466H253.675V9.3687H254.672L256.318 11.9466H257.358L255.625 9.28278C256.491 9.19685 257.228 8.7672 257.228 7.65013C257.228 6.49009 256.534 5.93156 255.105 5.93156H252.766V11.9466H252.722ZM253.675 6.70492H254.932C255.581 6.70492 256.275 6.83381 256.275 7.65013C256.275 8.59535 255.538 8.68128 254.715 8.68128H253.719V6.70492H253.675ZM158.244 31.1946L158.98 20.3246C155.731 18.7349 151.789 18.2623 147.717 18.2623C137.191 18.2623 129.134 22.0002 129.134 32.2257C129.134 37.8541 132.383 41.6779 138.707 43.1816L146.461 45.0721C149.797 45.8454 152.136 46.9195 152.136 50.8722C152.136 55.2116 148.454 57.6176 144.382 57.6176C140.137 57.6176 134.505 56.6295 133.725 52.9345L132.686 46.7477H129.177L129.134 59.3362C133.855 61.0118 138.534 61.8281 143.212 61.8281C152.483 61.8281 162.143 57.0161 162.143 46.6188C162.143 39.2719 157.984 36.4792 150.706 34.8895L143.342 33.2998C139.877 32.5694 138.361 31.1516 138.361 28.273C138.361 24.4062 141.523 22.4728 146.721 22.4728C149.623 22.4728 153.782 24.0625 154.129 25.9529L155.038 31.1516H158.244V31.1946ZM209.187 50.6145C209.187 58.6488 212.523 62 220.753 62C223.655 62 225.648 61.1837 226.255 60.3674L230.63 55.1257L229.893 53.3642C228.637 54.0086 227.684 54.5242 225.735 54.5242C221.706 54.5242 220.147 53.2782 220.147 48.767V27.5856L229.72 27.5426L229.85 21.8713H220.147V16.9734C220.147 12.8488 219.93 5.15821 220.017 4.81449L218.76 3.91224C216.031 5.15821 209.23 8.4235 209.23 8.4235C209.23 8.38053 209.36 21.9573 209.36 21.9573L203.382 25.824V27.8004L209.144 27.5426V50.6145H209.187ZM232.363 50.6145C232.363 58.6488 235.655 62 243.885 62C246.788 62 248.694 61.1837 249.387 60.3674L253.805 55.1257L253.112 53.3642C251.856 54.0086 250.86 54.5242 248.954 54.5242C244.838 54.5242 243.322 53.2782 243.322 48.767V27.5856L252.896 27.5426L253.026 21.8713H243.322V16.9734C243.322 12.8488 243.106 5.15821 243.192 4.81449L241.893 3.91224C239.207 5.15821 232.363 8.4235 232.363 8.4235C232.363 8.38053 232.493 21.8713 232.493 21.8713H226.514V27.5426H232.319V50.6145H232.363Z" fill="#55565A"/>
</svg>
