<svg width="328" height="48" viewBox="0 0 328 48" fill="none" xmlns="http://www.w3.org/2000/svg">
<path d="M25.2324 0.814697H12.1329L4.57328e-06 46.076H13.0995L25.2324 0.814697Z" fill="white"/>
<path d="M57.2942 0.814697H43.9784L18.2 26.9828H31.5158L57.2942 0.814697Z" fill="white"/>
<path fill-rule="evenodd" clip-rule="evenodd" d="M45.0073 46.0728L31.5457 26.9865L26.3001 46.0728H45.0073Z" fill="white"/>
<path fill-rule="evenodd" clip-rule="evenodd" d="M48.6729 46.0728H61.4392L65.1048 32.2952L70.6032 32.3584L76.7336 46.0728H90.3848L83.4328 30.652C91.2064 28.9456 95.7568 24.1424 96.8944 15.8C98.1584 6.57285 90.3216 1.32726 81.3472 1.20086C74.332 1.07446 68.0752 1.07446 60.8072 1.07446L48.6729 46.0728ZM67.7592 22.5624L70.6032 11.8184H79.6408C82.6112 11.8184 84.5704 14.22 83.9384 17.1904C83.3064 20.1608 80.2728 22.5624 77.3024 22.5624H67.7592Z" fill="white"/>
<path fill-rule="evenodd" clip-rule="evenodd" d="M94.0504 46.0728H106.817L118.951 0.821655H106.185L94.0504 46.0728Z" fill="white"/>
<path fill-rule="evenodd" clip-rule="evenodd" d="M155.038 46.0728L179.054 46.2624C179.054 46.2624 195.676 46.5152 198.583 35.9608C200.795 27.9976 195.17 24.5216 192.389 23.3208C197.003 22.1832 201.174 18.328 201.869 13.904C203.323 5.24565 196.75 1.20085 189.166 1.07445C181.645 0.884855 174.63 0.821655 167.173 0.821655L155.038 46.0728ZM169.954 36.0872L172.292 27.5552H180.634C183.036 27.5552 186.701 28.3136 186.512 31.3472C186.259 34.8232 182.846 35.5816 181.835 35.7712C180.824 35.9608 169.954 36.0872 169.954 36.0872ZM174.567 18.96L176.653 10.9336H184.805C187.017 10.9336 190.367 11.8184 189.988 14.6624C189.545 18.0752 185.943 18.644 185.058 18.8336C184.173 18.96 174.567 18.96 174.567 18.96Z" fill="white"/>
<path fill-rule="evenodd" clip-rule="evenodd" d="M327.132 0.821623H313.354L298.439 27.3024L296.796 0.821623H286.052L270.189 27.1128L269.493 0.758423H256.537L259.381 46.0096H270.441L286.368 20.7296L288.453 46.2624H299.703L327.132 0.821623Z" fill="white"/>
<path d="M320.685 34.3807C322.455 34.3807 324.098 35.1391 325.236 36.2767C326.373 37.4143 327.132 39.0575 327.132 40.8271C327.132 42.5967 326.373 44.1767 325.236 45.3143C324.098 46.5151 322.455 47.2103 320.685 47.2103C318.916 47.2103 317.336 46.5151 316.198 45.3143C314.997 44.1767 314.302 42.5967 314.302 40.8271C314.302 39.0575 314.997 37.4143 316.198 36.2767C317.336 35.1391 318.916 34.3807 320.685 34.3807ZM324.351 37.1615C323.403 36.2767 322.139 35.7079 320.685 35.7079C319.295 35.7079 318.031 36.2767 317.083 37.1615C316.135 38.1095 315.566 39.3735 315.566 40.8271C315.566 42.2175 316.135 43.4815 317.083 44.4295C318.031 45.3775 319.295 45.9463 320.685 45.9463C322.139 45.9463 323.403 45.3775 324.351 44.4295C325.236 43.4815 325.804 42.2175 325.804 40.8271C325.804 39.3735 325.236 38.1095 324.351 37.1615ZM323.592 39.8159C323.592 39.1207 323.34 38.5519 322.897 38.1095C322.392 37.6671 321.823 37.4775 321.191 37.4775H318.22V43.9239H319.99V42.1543H320.812L321.633 43.9239H323.592L322.518 41.7119C323.213 41.2063 323.592 40.5743 323.592 39.8159ZM321.128 39.0575C321.254 39.0575 321.444 39.1207 321.57 39.3103C321.696 39.4367 321.76 39.6263 321.76 39.8159C321.76 40.0055 321.696 40.1319 321.57 40.3215C321.444 40.5111 321.254 40.5743 321.128 40.5743H319.99V39.0575H321.128Z" fill="white"/>
<path fill-rule="evenodd" clip-rule="evenodd" d="M231.384 0C244.656 0 254.136 10.5544 252.556 23.5104C250.913 36.4663 238.841 47.0207 225.569 47.0207C212.234 47.0207 202.754 36.4663 204.397 23.5104C205.977 10.5544 218.112 0 231.384 0ZM230.625 11.06C224.116 11.06 217.796 17.064 217.164 24.5848C216.595 31.2208 220.829 35.8975 226.581 35.8975C233.09 35.8975 239.41 29.8936 240.042 22.3728C240.611 15.7368 236.377 11.06 230.625 11.06Z" fill="white"/>
<path d="M140.882 32.6744C140.629 30.5889 135.762 29.0089 133.614 28.2505C131.086 27.3657 127.041 25.5961 124.07 22.4361C120.974 19.1497 121.037 13.0193 122.996 9.16408C129.253 -2.9703 150.614 -1.7063 159.273 6.82569C156.808 9.66968 153.964 12.7033 151.562 15.6105C149.034 12.4505 142.904 9.85928 138.417 10.4913C136.394 10.7441 134.056 12.1977 134.751 14.5361C135.446 17.0009 142.335 18.7705 142.335 18.7705C142.335 18.7705 151.626 22.0569 153.395 27.3025C155.165 32.548 152.7 37.0984 152.7 37.0984C146.822 50.876 123.565 48.9168 113.706 38.868L121.732 30.3361C125.208 34.1912 132.097 37.3512 137.469 36.2768C139.175 35.9608 141.134 34.6336 140.882 32.6744Z" fill="white"/>
</svg>
