<svg width="328" height="48" viewBox="0 0 328 48" fill="none" xmlns="http://www.w3.org/2000/svg">
<path d="M26.1007 1.0625H13.0012L0.868321 46.3238H13.9678L26.1007 1.0625Z" fill="#373435"/>
<path d="M58.1625 1.0625H44.8467L19.0684 27.2306H32.3841L58.1625 1.0625Z" fill="#373435"/>
<path fill-rule="evenodd" clip-rule="evenodd" d="M45.8756 46.3206L32.414 27.2343L27.1685 46.3206H45.8756Z" fill="#373435"/>
<path fill-rule="evenodd" clip-rule="evenodd" d="M49.5412 46.3206H62.3076L65.9732 32.543L71.4716 32.6062L77.602 46.3206H91.2531L84.3011 30.8998C92.0747 29.1934 96.6251 24.3902 97.7627 16.0478C99.0267 6.82066 91.1899 1.57507 82.2155 1.44867C75.2004 1.32227 68.9436 1.32227 61.6756 1.32227L49.5412 46.3206ZM68.6276 22.8102L71.4716 12.0662H80.5092C83.4795 12.0662 85.4387 14.4678 84.8067 17.4382C84.1747 20.4086 81.1412 22.8102 78.1708 22.8102H68.6276Z" fill="#373435"/>
<path fill-rule="evenodd" clip-rule="evenodd" d="M94.9188 46.3206H107.685L119.82 1.06946H107.053L94.9188 46.3206Z" fill="#373435"/>
<path fill-rule="evenodd" clip-rule="evenodd" d="M155.907 46.3206L179.923 46.5102C179.923 46.5102 196.544 46.763 199.451 36.2086C201.663 28.2454 196.039 24.7694 193.258 23.5686C197.871 22.431 202.043 18.5758 202.738 14.1518C204.191 5.49345 197.619 1.44866 190.035 1.32226C182.514 1.13266 175.499 1.06946 168.041 1.06946L155.907 46.3206ZM170.822 36.335L173.16 27.803H181.503C183.904 27.803 187.57 28.5614 187.38 31.595C187.127 35.071 183.715 35.8294 182.703 36.019C181.692 36.2086 170.822 36.335 170.822 36.335ZM175.435 19.2078L177.521 11.1814H185.674C187.886 11.1814 191.235 12.0662 190.856 14.9102C190.414 18.323 186.811 18.8918 185.927 19.0814C185.042 19.2078 175.435 19.2078 175.435 19.2078Z" fill="#373435"/>
<path fill-rule="evenodd" clip-rule="evenodd" d="M328 1.06943H314.222L299.307 27.5502L297.664 1.06943H286.92L271.057 27.3606L270.362 1.00623H257.406L260.25 46.2574H271.31L287.236 20.9774L289.322 46.5102H300.571L328 1.06943Z" fill="#373435"/>
<path d="M321.554 34.6285C323.323 34.6285 324.966 35.3869 326.104 36.5245C327.242 37.6621 328 39.3053 328 41.0749C328 42.8445 327.242 44.4245 326.104 45.5621C324.966 46.7629 323.323 47.4581 321.554 47.4581C319.784 47.4581 318.204 46.7629 317.066 45.5621C315.866 44.4245 315.17 42.8445 315.17 41.0749C315.17 39.3053 315.866 37.6621 317.066 36.5245C318.204 35.3869 319.784 34.6285 321.554 34.6285ZM325.219 37.4093C324.271 36.5245 323.007 35.9557 321.554 35.9557C320.163 35.9557 318.899 36.5245 317.951 37.4093C317.003 38.3573 316.434 39.6213 316.434 41.0749C316.434 42.4653 317.003 43.7293 317.951 44.6773C318.899 45.6253 320.163 46.1941 321.554 46.1941C323.007 46.1941 324.271 45.6253 325.219 44.6773C326.104 43.7293 326.673 42.4653 326.673 41.0749C326.673 39.6213 326.104 38.3573 325.219 37.4093ZM324.461 40.0637C324.461 39.3685 324.208 38.7997 323.766 38.3573C323.26 37.9149 322.691 37.7253 322.059 37.7253H319.089V44.1717H320.858V42.4021H321.68L322.502 44.1717H324.461L323.386 41.9597C324.082 41.4541 324.461 40.8221 324.461 40.0637ZM321.996 39.3053C322.122 39.3053 322.312 39.3685 322.438 39.5581C322.565 39.6845 322.628 39.8741 322.628 40.0637C322.628 40.2533 322.565 40.3797 322.438 40.5693C322.312 40.7589 322.122 40.8221 321.996 40.8221H320.858V39.3053H321.996Z" fill="#373435"/>
<path fill-rule="evenodd" clip-rule="evenodd" d="M232.252 0.247803C245.524 0.247803 255.004 10.8022 253.424 23.7582C251.781 36.7141 239.71 47.2685 226.438 47.2685C213.103 47.2685 203.623 36.7141 205.266 23.7582C206.846 10.8022 218.98 0.247803 232.252 0.247803ZM231.494 11.3078C224.984 11.3078 218.664 17.3118 218.032 24.8326C217.463 31.4686 221.698 36.1454 227.449 36.1454C233.959 36.1454 240.279 30.1414 240.911 22.6206C241.479 15.9846 237.245 11.3078 231.494 11.3078Z" fill="#373435"/>
<path d="M141.75 32.9223C141.497 30.8367 136.631 29.2567 134.482 28.4983C131.954 27.6135 127.909 25.8439 124.939 22.6839C121.842 19.3975 121.905 13.2671 123.864 9.41189C130.121 -2.7225 151.483 -1.4585 160.141 7.07349C157.676 9.91749 154.832 12.9511 152.431 15.8583C149.903 12.6983 143.772 10.1071 139.285 10.7391C137.263 10.9919 134.924 12.4455 135.619 14.7839C136.315 17.2487 143.203 19.0183 143.203 19.0183C143.203 19.0183 152.494 22.3047 154.263 27.5503C156.033 32.7959 153.568 37.3462 153.568 37.3462C147.691 51.1238 124.433 49.1646 114.574 39.1158L122.6 30.5839C126.076 34.439 132.965 37.599 138.337 36.5246C140.043 36.2086 142.003 34.8814 141.75 32.9223Z" fill="#373435"/>
</svg>
