<svg width="279" height="51" viewBox="0 0 279 51" fill="none" xmlns="http://www.w3.org/2000/svg">
<g clip-path="url(#clip0_10_36)">
<path d="M23.9003 42.7181L8.61661 2.22131H0L18.5126 50.2585H29.2863L47.8022 2.22131H39.1839L23.9003 42.7181Z" fill="#40484E"/>
<path d="M60.886 2.09644H52.6827V50.2125H60.886V2.09644Z" fill="#40484E"/>
<path d="M189.534 35.4804L166.187 2.10301H158.458V50.2125H166.345V15.1827L191.112 50.2125H197.421V2.09644H189.534V35.4804Z" fill="#40484E"/>
<path d="M227.114 23.0979L218.676 21.1396C214.337 20.1202 212.287 18.0814 212.287 14.8686C212.287 10.8716 215.835 8.2063 221.042 8.2063C226.805 8.2063 229.877 11.0278 231.137 14.6335H239.34C237.605 6.63937 231.453 1.31543 220.968 1.31543C211.188 1.31543 204.482 7.43024 204.482 15.5806C204.482 23.3396 209.847 26.9453 216.55 28.5123L224.753 30.4705C229.805 31.6478 231.773 33.606 231.773 36.9766C231.773 41.4439 228.064 44.1092 222.387 44.1092C217.1 44.1092 213.001 41.8369 211.426 36.8993H203.062C204.793 45.8373 212.129 51.0066 222.377 51.0066C232.395 51.0066 239.646 45.4426 239.646 36.4291C239.655 29.211 234.685 24.8227 227.114 23.0979Z" fill="#40484E"/>
<path d="M279 9.30628V2.09644H247.372V50.2125H279V42.9254H255.418V29.1272H276.79V22.0012H255.418V9.30628H279Z" fill="#40484E"/>
<path d="M150.569 9.29797V2.08648H118.941V22.5059H118.825C116.274 22.3546 112.698 22.1162 110.473 21.7561C111.06 18.8165 111.256 15.8123 111.054 12.8215C110.432 4.91781 105.425 0.00656253 97.9837 0.00656253C95.353 -0.0919686 92.7633 0.67925 90.6164 2.20055C88.4695 3.72186 86.8854 5.90818 86.11 8.42029C85.3346 10.9324 85.4112 13.6298 86.3279 16.094C87.2446 18.5582 88.9502 20.6514 91.1799 22.0488C92.7452 23.18 94.4252 24.1438 96.1922 24.9245C97.8647 25.6848 99.58 26.3475 101.33 26.9091H101.344L101.311 26.9831L101.124 27.4138C101.053 27.5783 100.974 27.7427 100.9 27.9071L100.796 28.1406C100.737 28.2705 100.679 28.402 100.612 28.5335C100.538 28.698 100.462 28.8459 100.388 29.0005C100.337 29.1041 100.287 29.2077 100.236 29.3113C97.7031 34.2522 94.5599 38.8568 90.8802 43.0174L90.3978 43.5632L90.3764 43.5879L90.2759 43.3544L74.3041 2.21473H65.6907L66.16 3.38212L84.9131 50.2634H93.7321C99.6373 44.3757 104.445 37.4846 107.929 29.913C107.929 29.913 108.291 29.0696 108.438 28.6782C111.876 29.1886 115.339 29.5179 118.811 29.6648H118.928V50.2173H150.556V42.9302H126.987V29.8571L148.361 29.8259V22.6917H126.987V9.29797H150.569ZM103.383 19.7288C103.386 19.6995 103.391 19.6704 103.398 19.6417L103.383 19.7288ZM103.383 19.7288C101.418 18.933 99.673 18.2112 98.3624 17.5601C96.0357 16.4092 93.3436 14.8126 93.3436 11.5604C93.3457 10.9488 93.4743 10.3442 93.7215 9.78457C93.9686 9.22494 94.3289 8.72235 94.7797 8.3083C95.2306 7.89426 95.7622 7.5777 96.3413 7.37849C96.9204 7.17928 97.5345 7.10171 98.1451 7.15064C101.055 7.15064 103.314 9.53638 103.6 13.078C103.745 15.2969 103.67 17.5247 103.376 19.7288H103.383Z" fill="#40484E"/>
<path d="M103.34 19.7305L103.352 19.6417C103.349 19.6711 103.344 19.7003 103.337 19.7289L103.34 19.7305Z" fill="#40484E"/>
</g>
<defs>
<clipPath id="clip0_10_36">
<rect width="279" height="51" fill="white"/>
</clipPath>
</defs>
</svg>
