<svg width="193" height="46" viewBox="0 0 193 46" fill="none" xmlns="http://www.w3.org/2000/svg">
<path d="M15.1455 22.0924H17.1391C23.9562 22.0924 28.2329 24.2601 28.2329 31.7192C28.2329 37.5527 25.8855 41.6966 18.7148 41.6966C17.4285 41.6966 16.4317 41.6966 15.1133 41.4416V22.0924H15.1455ZM15.1455 3.60391C16.5282 3.41265 17.8466 3.3489 19.1971 3.3489C24.0848 3.3489 26.8502 5.26151 26.8502 10.4255C26.8502 16.8647 23.088 18.6816 17.1391 18.6816H15.1455V3.60391ZM5.24142 3.7633C5.56298 4.59209 5.6916 6.3772 5.6916 9.15048V38.8915C5.6916 40.9316 5.43436 42.0792 4.34105 42.6529L2.21876 43.8643V45.3625C4.69477 45.2987 7.42802 45.1712 10.2577 45.1712C13.4733 45.1712 16.6889 45.2987 19.6794 45.3625C30.5803 45.6494 38.2656 39.3378 38.2656 31.2092C38.2656 23.5269 33.3779 20.4986 24.8244 20.1798V20.0523C30.9662 18.0122 36.7221 15.749 36.7221 8.99109C36.7221 1.50006 30.1944 -0.0619097 24.0205 0.00184386C18.8755 0.0655974 4.43752 0.0655974 0 0.00184386V2.45636C0.032156 2.45636 4.5983 1.94632 5.24142 3.7633ZM49.8417 27.7027C46.9477 28.3084 43.9572 29.0734 41.4812 30.7629C39.1981 32.293 38.3942 35.2257 38.3942 37.7758C38.3942 42.4617 40.8702 45.9681 45.8544 45.8725C53.2181 45.745 55.7584 40.2941 55.7584 40.2941V44.9481C58.1058 44.8843 59.9709 44.7568 61.8359 44.7568C63.7653 44.7568 65.566 44.8843 67.6883 44.9481V42.4617L67.0452 42.3023C64.8586 42.111 64.0225 41.2185 63.9582 39.5609C63.8939 36.8514 63.7331 34.0781 63.7331 31.3686C63.7331 28.6272 63.8939 25.9177 63.9582 23.1763C64.119 16.0996 58.7811 13.5813 52.8965 13.5176C46.5618 13.422 41.6098 17.9166 41.6098 17.9166V22.5068L43.6035 22.9531L44.6968 20.3711C45.2113 18.7454 47.6873 18.7135 48.8449 18.7135C53.8612 18.7135 55.8227 21.8693 55.8227 26.5233L49.8417 27.7027ZM55.7263 37.1383C54.9224 38.3815 52.1891 40.0709 50.1633 40.1028C43.6356 40.1984 43.1854 32.4205 52.7036 30.0616L55.7263 29.2966V37.1383ZM90.8727 23.1444L91.4194 15.0795C89.0077 13.9001 86.0815 13.5495 83.0588 13.5495C75.2449 13.5495 69.2961 16.3227 69.2961 23.9094C69.2961 28.0853 71.7078 30.9223 76.3704 32.038L82.1263 33.4406C84.6023 34.0143 86.3387 34.8113 86.3387 37.7439C86.3387 40.9635 83.6055 42.7486 80.5828 42.7486C77.4315 42.7486 73.2513 42.0154 72.6725 39.274L71.9007 34.6838H69.2961V44.0236C72.7689 45.2668 76.2418 45.8725 79.7468 45.8725C86.6281 45.8725 93.7989 42.3023 93.7989 34.5881C93.7989 29.1372 90.7441 27.0652 85.3097 25.8858L79.8111 24.7063C77.2708 24.1644 76.1453 23.1125 76.1453 20.9767C76.1453 18.1078 78.4927 16.6734 82.3836 16.6734C84.5058 16.6734 87.5928 17.8528 87.8501 19.2554L88.5253 23.1125H90.8727V23.1444ZM149.782 29.4241L149.815 25.1526C149.815 17.3747 144.219 13.4857 136.791 13.4857C134.766 13.4857 121.292 14.4739 121.807 30.5398C122.096 40.039 127.241 45.8725 136.984 45.8725C140.94 45.8725 143.673 45.1075 147.692 43.0036L149.171 39.8478L148.368 38.8277C146.245 40.1028 143.383 41.1547 141.165 41.1547C134.187 41.1547 130.521 36.3732 130.521 29.9341C130.521 29.9341 149.782 29.6472 149.782 29.4241ZM135.891 17.1834C140.843 17.1834 141.358 22.5068 141.358 26.4277C139.493 26.4914 131.968 26.4914 130.103 26.4277C130.103 20.1798 131.968 17.1834 135.891 17.1834ZM185.25 6.63221C185.25 8.8317 187.019 10.4574 189.141 10.4574C191.231 10.4574 193 8.79983 193 6.63221C193 4.49646 191.231 2.83887 189.141 2.83887C187.019 2.83887 185.25 4.49646 185.25 6.63221ZM185.958 6.63221C185.958 4.81523 187.308 3.41266 189.109 3.41266C190.91 3.41266 192.26 4.78335 192.26 6.63221C192.26 8.48106 190.91 9.91552 189.109 9.91552C187.308 9.91552 185.958 8.48106 185.958 6.63221ZM187.598 8.86358H188.305V6.95097H189.045L190.267 8.86358H191.038L189.752 6.88723C190.395 6.82347 190.942 6.5047 190.942 5.6759C190.942 4.81523 190.428 4.40083 189.366 4.40083H187.63V8.86358H187.598ZM188.305 4.97462H189.238C189.72 4.97462 190.235 5.07024 190.235 5.6759C190.235 6.37719 189.688 6.44095 189.077 6.44095H188.337V4.97462H188.305ZM117.466 23.1444L118.012 15.0795C115.601 13.9001 112.674 13.5495 109.652 13.5495C101.838 13.5495 95.8569 16.3227 95.8569 23.9094C95.8569 28.0853 98.2686 30.9223 102.963 32.038L108.719 33.4406C111.195 34.0143 112.932 34.8113 112.932 37.7439C112.932 40.9635 110.198 42.7486 107.176 42.7486C104.025 42.7486 99.8442 42.0154 99.2654 39.274L98.4937 34.6838H95.8891L95.8569 44.0236C99.3619 45.2668 102.835 45.8725 106.308 45.8725C113.189 45.8725 120.36 42.3023 120.36 34.5881C120.36 29.1372 117.273 27.0652 111.871 25.8858L106.404 24.7063C103.832 24.1644 102.706 23.1125 102.706 20.9767C102.706 18.1078 105.053 16.6734 108.912 16.6734C111.067 16.6734 114.154 17.8528 114.411 19.2554L115.086 23.1125H117.466V23.1444ZM155.281 37.5527C155.281 43.5136 157.757 46 163.867 46C166.021 46 167.5 45.3943 167.951 44.7887L171.198 40.8997L170.652 39.5928C169.719 40.0709 169.012 40.4534 167.565 40.4534C164.574 40.4534 163.417 39.529 163.417 36.182V20.4667L170.523 20.4348L170.619 16.2271H163.417V12.5932C163.417 9.53299 163.256 3.82706 163.32 3.57204L162.388 2.90263C160.362 3.82706 155.313 6.24969 155.313 6.24969C155.313 6.21781 155.41 16.2909 155.41 16.2909L150.972 19.1598V20.6261L155.249 20.4348V37.5527H155.281ZM172.485 37.5527C172.485 43.5136 174.928 46 181.038 46C183.192 46 184.607 45.3943 185.122 44.7887L188.402 40.8997L187.887 39.5928C186.955 40.0709 186.215 40.4534 184.8 40.4534C181.745 40.4534 180.62 39.529 180.62 36.182V20.4667L187.726 20.4348L187.823 16.2271H180.62V12.5932C180.62 9.53299 180.459 3.82706 180.523 3.57204L179.559 2.90263C177.565 3.82706 172.485 6.24969 172.485 6.24969C172.485 6.21781 172.581 16.2271 172.581 16.2271H168.143V20.4348H172.452V37.5527H172.485Z" fill="white"/>
</svg>
